<?xml version="1.0" encoding="UTF-8"?>
<svg version="1.1" xmlns="http://www.w3.org/2000/svg" width="1448" height="1086">
<path d="M0 0 C7.39335976 -0.00180991 14.78671875 -0.00405276 22.18007791 -0.00757873 C37.73462252 -0.01494462 53.2891571 -0.019669 68.84370327 -0.01436579 C75.28015555 -0.01222811 81.71659878 -0.01143086 88.15305078 -0.01472747 C94.06109167 -0.01761387 99.9691115 -0.01565434 105.87715018 -0.00996554 C108.00382433 -0.00868536 110.1305003 -0.00903689 112.25717366 -0.01127827 C122.38283566 -0.02094502 132.48645239 0.06767082 142.60202157 0.55135834 C143.3867914 0.58799934 144.17156123 0.62464033 144.98011196 0.66239166 C179.179358 2.50134492 179.179358 2.50134492 187.79940927 11.12139618 C190.69539931 12.71918379 193.71964213 13.92370896 196.79940927 15.12139618 C196.79940927 15.78139618 196.79940927 16.44139618 196.79940927 17.12139618 C198.21546917 17.91414767 199.6322848 18.7055493 201.04940927 19.49639618 C201.83831552 19.93725556 202.62722177 20.37811493 203.44003427 20.83233368 C204.91959473 21.64070281 206.41425863 22.42261596 207.92831552 23.16436493 C211.76253236 25.12549881 214.42447862 26.99660423 215.79940927 31.12139618 C216.45940927 31.57514618 217.11940927 32.02889618 217.79940927 32.49639618 C220.32136804 34.54548768 220.45803641 35.96369725 220.79940927 39.12139618 C221.78940927 39.45139618 222.77940927 39.78139618 223.79940927 40.12139618 C226.50332597 43.76128405 227.06663749 46.7247655 227.79940927 51.12139618 C229.03723981 54.8246578 230.40435368 58.47478577 231.79940927 62.12139618 C232.45940927 62.12139618 233.11940927 62.12139618 233.79940927 62.12139618 C239.00114149 81.44211587 234.97318578 100.69122081 225.79940927 118.12139618 C225.13940927 118.12139618 224.47940927 118.12139618 223.79940927 118.12139618 C223.57253427 118.80202118 223.34565927 119.48264618 223.11190927 120.18389618 C221.73129105 123.27385125 220.03096206 125.65967363 218.02206552 128.35967743 C216.62467443 130.27381135 216.62467443 130.27381135 215.29940927 133.24639618 C213.57752395 136.54667638 211.59624417 138.68312986 208.79940927 141.12139618 C208.13940927 141.12139618 207.47940927 141.12139618 206.79940927 141.12139618 C206.53128427 141.76077118 206.26315927 142.40014618 205.98690927 143.05889618 C204.79940927 145.12139618 204.79940927 145.12139618 201.79940927 146.12139618 C200.1335169 147.97951331 200.1335169 147.97951331 198.61190927 150.18389618 C198.08210458 150.91737275 197.5522999 151.65084931 197.00644052 152.40655243 C196.60812021 152.97245087 196.2097999 153.53834931 195.79940927 154.12139618 C196.12940927 154.78139618 196.45940927 155.44139618 196.79940927 156.12139618 C195.47940927 156.78139618 194.15940927 157.44139618 192.79940927 158.12139618 C192.79940927 159.11139618 192.79940927 160.10139618 192.79940927 161.12139618 C191.80940927 161.45139618 190.81940927 161.78139618 189.79940927 162.12139618 C189.07895163 164.10265468 188.41939668 166.10643711 187.79940927 168.12139618 C186.29940927 170.99639618 186.29940927 170.99639618 184.79940927 173.12139618 C184.13940927 173.12139618 183.47940927 173.12139618 182.79940927 173.12139618 C182.51065927 173.76077118 182.22190927 174.40014618 181.92440927 175.05889618 C180.79940927 177.12139618 180.79940927 177.12139618 178.79940927 178.12139618 C178.46940927 179.11139618 178.13940927 180.10139618 177.79940927 181.12139618 C177.13940927 181.45139618 176.47940927 181.78139618 175.79940927 182.12139618 C175.53128427 182.80202118 175.26315927 183.48264618 174.98690927 184.18389618 C173.40737149 188.09117386 171.38534274 191.78123212 168.79940927 195.12139618 C168.13940927 195.12139618 167.47940927 195.12139618 166.79940927 195.12139618 C166.79940927 195.78139618 166.79940927 196.44139618 166.79940927 197.12139618 C166.13940927 197.12139618 165.47940927 197.12139618 164.79940927 197.12139618 C164.46940927 198.44139618 164.13940927 199.76139618 163.79940927 201.12139618 C163.13940927 201.12139618 162.47940927 201.12139618 161.79940927 201.12139618 C161.46940927 202.44139618 161.13940927 203.76139618 160.79940927 205.12139618 C160.13940927 205.12139618 159.47940927 205.12139618 158.79940927 205.12139618 C158.67565927 205.76077118 158.55190927 206.40014618 158.42440927 207.05889618 C158.21815927 207.73952118 158.01190927 208.42014618 157.79940927 209.12139618 C157.13940927 209.45139618 156.47940927 209.78139618 155.79940927 210.12139618 C154.76505371 211.76696185 153.77177414 213.43845699 152.79940927 215.12139618 C151.52891287 217.16189041 150.20509731 219.17157083 148.79940927 221.12139618 C148.13940927 221.12139618 147.47940927 221.12139618 146.79940927 221.12139618 C146.51065927 221.69889618 146.22190927 222.27639618 145.92440927 222.87139618 C144.8827426 224.95472952 143.84107594 227.03806285 142.79940927 229.12139618 C142.13940927 229.12139618 141.47940927 229.12139618 140.79940927 229.12139618 C140.43976083 230.17907197 140.43976083 230.17907197 140.07284677 231.25811493 C138.58711225 234.59873886 136.69725821 237.06892964 134.42440927 239.93389618 C133.52893253 241.07508198 132.6344479 242.21704679 131.74081552 243.35967743 C131.02949472 244.26580781 131.02949472 244.26580781 130.3038038 245.19024384 C127.61786162 248.63811834 124.98890835 252.12852597 122.36190927 255.62139618 C121.85417978 256.29146698 121.34645029 256.96153779 120.82333505 257.65191376 C118.85527084 260.26907654 116.97504038 262.81951566 115.32675302 265.65264618 C113.61548258 268.41868946 111.61977988 270.70300227 109.4810499 273.1443454 C106.32653487 276.85300723 103.45698252 280.78079921 100.54940927 284.68389618 C99.89408212 285.55925019 99.23875497 286.43460419 98.56356943 287.33648407 C93.91086643 293.57147128 89.37716395 299.87842758 84.94784677 306.27373993 C82.79940927 309.12139618 82.79940927 309.12139618 80.08847177 311.81280243 C77.59966387 313.98161574 77.59966387 313.98161574 76.79940927 317.12139618 C75.46607594 318.45472952 74.1327426 319.78806285 72.79940927 321.12139618 C72.12049168 322.44853337 71.45472581 323.78244792 70.79940927 325.12139618 C69.11852006 327.66524349 67.29416658 330.10361832 65.48690927 332.55889618 C64.77631357 333.54212861 64.77631357 333.54212861 64.0513624 334.54522431 C61.85657459 337.53866267 59.70640075 340.21413858 57.06894052 342.84405243 C54.91962536 345.00076627 54.10585572 346.45124372 52.79940927 349.12139618 C51.90703844 350.46517393 50.98566731 351.789985 50.04159677 353.09795868 C49.50204355 353.846904 48.96249032 354.59584931 48.406587 355.36748993 C47.54915903 356.54504853 47.54915903 356.54504853 46.67440927 357.74639618 C46.09054452 358.54948212 45.50667978 359.35256806 44.90512216 360.17998993 C32.87304333 376.65527111 32.87304333 376.65527111 29.90097177 377.94561493 C26.59651909 379.79438864 24.83104636 382.87275126 22.73690927 385.93389618 C22.30313974 386.55071259 21.86937021 387.167529 21.42245615 387.80303681 C16.95208471 394.11247137 16.95208471 394.11247137 13.79940927 401.12139618 C13.16003427 401.38952118 12.52065927 401.65764618 11.86190927 401.93389618 C8.86403908 403.65994266 8.85743844 405.88507167 7.79940927 409.12139618 C5.58965948 412.44369361 3.68649282 414.82570167 -0.20059073 416.12139618 C-0.28309073 416.8290915 -0.36559073 417.53678681 -0.45059073 418.26592743 C-1.37704612 421.79321333 -2.99243726 423.91858102 -5.20059073 426.80889618 C-7.93684981 430.3182578 -7.93684981 430.3182578 -10.20059073 434.12139618 C-10.86059073 434.12139618 -11.52059073 434.12139618 -12.20059073 434.12139618 C-12.48934073 434.88452118 -12.77809073 435.64764618 -13.07559073 436.43389618 C-14.20059073 439.12139618 -14.20059073 439.12139618 -16.20059073 442.12139618 C-16.86059073 442.12139618 -17.52059073 442.12139618 -18.20059073 442.12139618 C-18.44809073 442.82651337 -18.69559073 443.53163056 -18.95059073 444.25811493 C-20.36162732 447.49027061 -22.12566333 450.08468521 -24.20059073 452.93389618 C-24.90184073 453.9097165 -25.60309073 454.88553681 -26.32559073 455.89092743 C-27.25371573 456.99500947 -27.25371573 456.99500947 -28.20059073 458.12139618 C-28.86059073 458.12139618 -29.52059073 458.12139618 -30.20059073 458.12139618 C-30.44809073 458.82651337 -30.69559073 459.53163056 -30.95059073 460.25811493 C-32.36162732 463.49027061 -34.12566333 466.08468521 -36.20059073 468.93389618 C-36.90184073 469.9097165 -37.60309073 470.88553681 -38.32559073 471.89092743 C-39.25371573 472.99500947 -39.25371573 472.99500947 -40.20059073 474.12139618 C-40.86059073 474.12139618 -41.52059073 474.12139618 -42.20059073 474.12139618 C-42.44809073 474.83811493 -42.69559073 475.55483368 -42.95059073 476.29327118 C-44.33661183 479.42914393 -46.03846898 481.71643785 -48.20059073 484.37139618 C-48.90184073 485.24280243 -49.60309073 486.11420868 -50.32559073 487.01202118 C-52.20059073 489.12139618 -52.20059073 489.12139618 -54.20059073 490.12139618 C-54.86876633 491.78745849 -55.53514049 493.45424346 -56.20059073 495.12139618 C-59.33437508 500.05620603 -62.1706134 504.3735098 -67.76309073 506.43389618 C-72.96285207 504.44853276 -74.4615508 500.75612788 -77.10635245 496.02178681 C-79.25666692 492.2872826 -81.62893239 488.68830775 -83.95059073 485.05889618 C-88.63304 477.67187133 -93.21941469 470.22988701 -97.72305167 462.73248017 C-98.15134268 462.02422089 -98.5796337 461.31596161 -99.02090323 460.58623993 C-99.39489249 459.96354218 -99.76888175 459.34084443 -100.15420401 458.69927704 C-101.2379952 456.95165819 -101.2379952 456.95165819 -103.20059073 455.12139618 C-104.1078009 453.53522299 -104.97727436 451.92733217 -105.82559073 450.30889618 C-108.6445984 445.06391556 -111.68705055 440.00644306 -114.84121573 434.95733368 C-116.71006321 431.94714262 -118.51543709 428.90300774 -120.30996573 425.84795868 C-120.84927725 424.93393281 -121.38858878 424.01990693 -121.94424307 423.07818329 C-123.0232835 421.24646292 -124.09662896 419.41137459 -125.16396964 417.5728122 C-125.65816397 416.7367746 -126.15235831 415.900737 -126.66152823 415.03936493 C-127.102871 414.28421601 -127.54421378 413.52906708 -127.99893057 412.75103486 C-128.39547843 412.21325409 -128.79202628 411.67547333 -129.20059073 411.12139618 C-129.86059073 411.12139618 -130.52059073 411.12139618 -131.20059073 411.12139618 C-131.20059073 410.13139618 -131.20059073 409.14139618 -131.20059073 408.12139618 C-133.06855943 406.19307032 -133.06855943 406.19307032 -134.70059073 404.87139618 C-136.20059073 403.12139618 -136.20059073 403.12139618 -137.08340323 400.36358368 C-138.23501014 397.0215077 -139.67550852 394.47078648 -141.57559073 391.49639618 C-142.29833147 390.35143693 -143.01958751 389.20553964 -143.73965323 388.05889618 C-144.32988272 387.12110322 -144.32988272 387.12110322 -144.93203604 386.16436493 C-147.3264641 382.30821136 -149.62905051 378.39668895 -151.95059073 374.49639618 C-156.00464778 367.70702521 -160.14630202 360.98252595 -164.38809073 354.30889618 C-168.10038141 348.46129736 -171.79258519 342.60422707 -175.38809073 336.68389618 C-175.76280509 336.07505585 -176.13751944 335.46621552 -176.52358878 334.83892548 C-178.26551862 331.94779152 -179.48483319 329.41098891 -180.20059073 326.12139618 C-180.86059073 325.13139618 -181.52059073 324.14139618 -182.20059073 323.12139618 C-184.20059073 320.12139618 -184.20059073 320.12139618 -185.20059073 317.12139618 C-187.04247685 315.06869156 -187.04247685 315.06869156 -189.20059073 314.12139618 C-189.76309073 312.24639618 -189.76309073 312.24639618 -190.20059073 310.12139618 C-190.93505766 307.17263941 -190.93505766 307.17263941 -192.63809073 305.68389618 C-194.37887696 303.94310995 -195.10326712 302.3160434 -196.20059073 300.12139618 C-196.78453604 299.40081025 -197.36848135 298.68022431 -197.97012198 297.93780243 C-200.51598241 294.72315204 -202.73822984 291.38215249 -204.95059073 287.93389618 C-205.36180167 287.30547822 -205.7730126 286.67706025 -206.19668448 286.02959931 C-209.20059073 281.36406385 -209.20059073 281.36406385 -209.20059073 279.12139618 C-210.03590323 278.31702118 -210.03590323 278.31702118 -210.88809073 277.49639618 C-213.50958332 274.80405244 -215.19256278 271.97617108 -217.05215323 268.73077118 C-217.62062979 267.93413056 -217.62062979 267.93413056 -218.20059073 267.12139618 C-218.86059073 267.12139618 -219.52059073 267.12139618 -220.20059073 267.12139618 C-220.20059073 266.46139618 -220.20059073 265.80139618 -220.20059073 265.12139618 C-281.91059073 264.79139618 -343.62059073 264.46139618 -407.20059073 264.12139618 C-402.58059073 271.38139618 -397.96059073 278.64139618 -393.20059073 286.12139618 C-389.40230002 292.23427029 -385.65380479 298.37354123 -381.92324698 304.52764618 C-374.30981758 317.11981575 -374.30981758 317.11981575 -366.45059073 329.55889618 C-365.76352042 330.62108368 -365.0764501 331.68327118 -364.36855948 332.77764618 C-363.20898781 334.56610266 -362.04904401 336.35431972 -360.88662589 338.14092743 C-359.50328042 340.27470247 -358.13234026 342.41605517 -356.76309073 344.55889618 C-356.33737784 345.20979218 -355.91166495 345.86068818 -355.47305167 346.53130829 C-353.57196051 349.52417993 -352.2595922 351.88848085 -351.38027823 355.35967743 C-349.56014894 361.16359964 -346.12555759 365.84193024 -342.76309073 370.87139618 C-342.0818212 371.91166962 -341.40055167 372.95194306 -340.6986376 374.02373993 C-336.87288684 379.91724517 -336.87288684 379.91724517 -332.20059073 385.12139618 C-329.3383959 388.51847435 -326.93678552 392.01083675 -324.63809073 395.80889618 C-324.30148428 396.3621457 -323.96487784 396.91539521 -323.6180712 397.48540986 C-322.87678122 398.70405323 -322.13693575 399.92357615 -321.39834464 401.14385712 C-319.21654584 404.74609321 -317.02063998 408.33972424 -314.82559073 411.93389618 C-314.36330069 412.69113984 -313.90101065 413.44838349 -313.42471182 414.22857392 C-310.22822056 419.45793605 -307.00829474 424.67212359 -303.76309073 429.87139618 C-303.36235343 430.51439667 -302.96161612 431.15739716 -302.54873526 431.81988251 C-300.7282 434.72897336 -298.88021172 437.60626959 -296.94668448 440.44170868 C-295.20059073 443.12139618 -295.20059073 443.12139618 -294.70059073 445.24639618 C-294.31880906 447.34167879 -294.31880906 447.34167879 -292.20059073 448.99639618 C-290.20059073 451.12139618 -290.20059073 451.12139618 -289.70059073 454.24639618 C-289.53559073 455.19514618 -289.37059073 456.14389618 -289.20059073 457.12139618 C-288.32080557 457.488779 -288.32080557 457.488779 -287.42324698 457.86358368 C-284.09401479 459.74761315 -282.85052025 462.83511526 -281.13809073 466.12139618 C-278.49519453 471.28450037 -278.49519453 471.28450037 -274.20059073 475.12139618 C-274.53059073 475.78139618 -274.86059073 476.44139618 -275.20059073 477.12139618 C-274.21059073 476.79139618 -273.22059073 476.46139618 -272.20059073 476.12139618 C-272.20059073 477.11139618 -272.20059073 478.10139618 -272.20059073 479.12139618 C-265.27306674 494.18351274 -255.06004185 508.13221349 -246.20059073 522.12139618 C-244.11632665 525.41247489 -242.03278204 528.70400564 -239.95059073 531.99639618 C-239.45140128 532.78570527 -238.95221182 533.57501435 -238.43789542 534.38824189 C-234.88403584 540.01675837 -231.3808714 545.67396149 -227.91934073 551.35967743 C-226.65649913 553.38883427 -225.33495189 555.38175414 -223.98184073 557.35186493 C-222.20059073 560.12139618 -222.20059073 560.12139618 -222.20059073 562.12139618 C-221.54059073 562.12139618 -220.88059073 562.12139618 -220.20059073 562.12139618 C-219.88348135 562.72983368 -219.56637198 563.33827118 -219.23965323 563.96514618 C-215.08766813 571.76445521 -210.46675914 579.20490774 -205.74746573 586.66631806 C-204.02455758 589.40078212 -202.31476427 592.14317356 -200.60684073 594.88702118 C-193.61723778 606.11375173 -186.55597622 617.28501623 -179.3392626 628.36700165 C-177.14451948 631.74852483 -174.98471338 635.15209628 -172.82949698 638.55889618 C-171.65996991 640.39872774 -170.47889748 642.23123938 -169.29043448 644.05889618 C-168.66266104 645.02827118 -168.0348876 645.99764618 -167.38809073 646.99639618 C-166.82477042 647.86006806 -166.2614501 648.72373993 -165.68105948 649.61358368 C-163.81315543 652.777685 -162.60307846 656.03438553 -161.33096182 659.470029 C-160.16688007 662.20046697 -158.79481369 664.5412221 -157.18887198 667.03545868 C-156.5952587 667.96229462 -156.00164542 668.88913056 -155.39004385 669.84405243 C-154.77064932 670.80182587 -154.15125479 671.75959931 -153.51309073 672.74639618 C-152.30085115 674.63441702 -151.08861156 676.52243785 -149.87637198 678.41045868 C-149.27260733 679.34277314 -148.66884268 680.27508759 -148.04678214 681.235654 C-146.77284097 683.22692411 -145.52116466 685.23255355 -144.28799307 687.24932587 C-143.67520499 688.24609345 -143.0624169 689.24286103 -142.43105948 690.26983368 C-141.88216055 691.17652802 -141.33326163 692.08322236 -140.7677294 693.01739228 C-139.30057343 695.40580789 -139.30057343 695.40580789 -136.20059073 696.12139618 C-134.73288505 698.28543666 -133.42352522 700.4150661 -132.13809073 702.68389618 C-131.32954134 704.07009908 -130.51960066 705.45549124 -129.70840323 706.84014618 C-129.29235831 707.55428681 -128.87631339 708.26842743 -128.44766104 709.00420868 C-126.52608591 712.26652261 -124.52560717 715.47713016 -122.51309073 718.68389618 C-121.91573111 719.63945405 -121.91573111 719.63945405 -121.30630362 720.61431611 C-118.71619702 724.74499913 -116.0919034 728.85278874 -113.45449698 732.95342743 C-112.81278555 733.95365937 -112.17107413 734.9538913 -111.5099169 735.98443329 C-110.23416778 737.97091781 -108.95446543 739.95486982 -107.67056143 741.93609345 C-107.09008048 742.84029023 -106.50959952 743.744487 -105.91152823 744.67608368 C-105.38865225 745.4854538 -104.86577628 746.29482392 -104.32705557 747.1287204 C-103.20059073 749.12139618 -103.20059073 749.12139618 -103.20059073 751.12139618 C-102.54059073 751.12139618 -101.88059073 751.12139618 -101.20059073 751.12139618 C-100.85834464 750.0965915 -100.85834464 750.0965915 -100.50918448 749.05108368 C-98.88460943 745.41397537 -96.65061486 742.40493045 -94.26309073 739.24639618 C-93.2734876 737.91568174 -92.28390488 736.58495212 -91.29434073 735.25420868 C-90.26319826 733.87652403 -89.23194773 732.49892024 -88.20059073 731.12139618 C-86.21514958 728.45933091 -84.23757826 725.79159128 -82.26309073 723.12139618 C-81.81522208 722.52343232 -81.36735343 721.92546845 -80.905913 721.30938447 C-78.78578828 718.44391902 -76.84240857 715.5826526 -75.10293448 712.46905243 C-73.46586044 709.5882055 -71.77934808 707.12427174 -69.70059073 704.55889618 C-67.65211957 701.99939916 -65.73432062 699.47324106 -64.01309073 696.68389618 C-62.20059073 694.12139618 -62.20059073 694.12139618 -60.24893057 693.17461884 C-57.89867309 691.9661551 -57.0582166 690.89555108 -55.61465323 688.70733368 C-55.16138663 688.03226777 -54.70812003 687.35720185 -54.24111807 686.66167939 C-53.77399405 685.94713593 -53.30687003 685.23259247 -52.82559073 684.49639618 C-51.85313564 683.03836121 -50.87919205 681.58131783 -49.90371573 680.12530243 C-49.4390087 679.42936982 -48.97430167 678.7334372 -48.4955126 678.01641572 C-46.94534687 675.74786624 -45.28357678 673.58546114 -43.57559073 671.43389618 C-41.42560976 668.66701726 -40.81260011 666.58944932 -40.20059073 663.12139618 C-39.60246573 662.83264618 -39.00434073 662.54389618 -38.38809073 662.24639618 C-34.44137615 660.21665726 -32.77526031 655.72226143 -31.32559073 651.68389618 C-29.10413575 646.6239154 -25.7949062 642.18427317 -21.20059073 639.12139618 C-20.25059126 637.52675421 -19.30959088 635.92593054 -18.41934073 634.29717743 C-14.1756161 626.72104084 -9.2164983 619.62014325 -4.05996573 612.64483368 C-2.4441759 610.45197605 -0.87822989 608.23402321 0.67440927 605.99639618 C2.79940927 603.12139618 2.79940927 603.12139618 4.79940927 602.12139618 C5.12940927 601.46139618 5.45940927 600.80139618 5.79940927 600.12139618 C6.45940927 599.13139618 7.11940927 598.14139618 7.79940927 597.12139618 C8.12940927 596.13139618 8.45940927 595.14139618 8.79940927 594.12139618 C9.45940927 593.79139618 10.11940927 593.46139618 10.79940927 593.12139618 C11.07655771 592.40983368 11.35370615 591.69827118 11.63925302 590.96514618 C13.06583782 587.46833226 15.13387947 584.6362359 17.36190927 581.62139618 C18.27547788 580.36417056 19.18822242 579.10634576 20.10019052 577.84795868 C20.55732431 577.21921845 21.0144581 576.59047822 21.48544443 575.94268525 C23.37781252 573.31967038 25.21503239 570.66020051 27.04940927 567.99639618 C30.89741301 562.41475118 34.781665 556.8594189 38.67440927 551.30889618 C46.14288836 540.64942085 53.53373102 529.94064524 60.83847177 519.16827118 C68.57452903 507.76123254 76.34997194 496.39317049 84.34481943 485.16582978 C87.00450833 481.42762319 89.6517043 477.68059503 92.29940927 473.93389618 C92.79223398 473.23844697 93.28505868 472.54299775 93.79281747 471.82647431 C95.92164123 468.8158827 98.01548219 465.80074634 100.01034677 462.69952118 C101.89465506 459.98414242 102.96372051 459.53924056 105.79940927 458.12139618 C107.0465533 455.71187595 107.0465533 455.71187595 107.79940927 453.12139618 C108.12940927 452.13139618 108.45940927 451.14139618 108.79940927 450.12139618 C109.78940927 449.79139618 110.77940927 449.46139618 111.79940927 449.12139618 C112.50538972 447.13493298 113.1658274 445.13212204 113.79940927 443.12139618 C114.92036375 441.22625732 116.11332732 439.372493 117.36190927 437.55889618 C118.42925302 435.99848603 118.42925302 435.99848603 119.51815927 434.40655243 C120.64737802 432.78040009 120.64737802 432.78040009 121.79940927 431.12139618 C122.56028213 430.01624138 123.32069838 428.91077206 124.08065927 427.80498993 C125.58718028 425.61670216 127.10144656 423.43443087 128.61972177 421.25420868 C130.03973427 419.21325881 131.45162743 417.16662816 132.85409677 415.11358368 C133.4754249 414.20866181 134.09675302 413.30373993 134.73690927 412.37139618 C135.28218271 411.57217743 135.82745615 410.77295868 136.38925302 409.94952118 C137.79940927 408.12139618 137.79940927 408.12139618 139.79940927 407.12139618 C139.79940927 406.46139618 139.79940927 405.80139618 139.79940927 405.12139618 C140.45940927 405.12139618 141.11940927 405.12139618 141.79940927 405.12139618 C141.88190927 404.39952118 141.96440927 403.67764618 142.04940927 402.93389618 C142.95597543 399.53427309 144.43835383 397.69709303 146.79940927 395.12139618 C147.45940927 394.79139618 148.11940927 394.46139618 148.79940927 394.12139618 C149.12940927 393.13139618 149.45940927 392.14139618 149.79940927 391.12139618 C150.45940927 391.12139618 151.11940927 391.12139618 151.79940927 391.12139618 C151.79940927 390.13139618 151.79940927 389.14139618 151.79940927 388.12139618 C152.45940927 387.46139618 153.11940927 386.80139618 153.79940927 386.12139618 C158.57574207 380.93886499 162.63999759 375.44021955 165.79940927 369.12139618 C166.75847177 368.22420868 166.75847177 368.22420868 167.73690927 367.30889618 C169.93373739 364.97892697 170.63933413 363.06025321 171.79940927 360.12139618 C172.78940927 359.46139618 173.77940927 358.80139618 174.79940927 358.12139618 C175.14094864 356.45639176 175.47390425 354.78960941 175.79940927 353.12139618 C177.23690927 351.55889618 177.23690927 351.55889618 178.79940927 350.12139618 C179.08171396 349.55163056 179.36401865 348.98186493 179.65487802 348.39483368 C181.09958984 345.52513308 182.86738229 342.9648849 184.67440927 340.30889618 C187.57767594 335.99622551 190.31074462 331.68394805 192.79940927 327.12139618 C193.45940927 327.12139618 194.11940927 327.12139618 194.79940927 327.12139618 C195.45940927 325.14139618 196.11940927 323.16139618 196.79940927 321.12139618 C197.45940927 321.12139618 198.11940927 321.12139618 198.79940927 321.12139618 C199.12940927 319.80139618 199.45940927 318.48139618 199.79940927 317.12139618 C200.45940927 317.12139618 201.11940927 317.12139618 201.79940927 317.12139618 C201.90253427 316.55163056 202.00565927 315.98186493 202.11190927 315.39483368 C202.92397463 312.7094812 204.13493173 311.00422914 205.79940927 308.74639618 C208.75784407 304.6384673 211.53184893 300.45942995 214.23690927 296.18389618 C225.4744331 278.56305491 225.4744331 278.56305491 229.79940927 277.12139618 C229.93669443 275.79483002 229.93669443 275.79483002 230.07675302 274.44146454 C230.88041846 270.74921915 232.05024499 268.95689165 234.36190927 266.00030243 C238.77797913 260.18153895 242.81454604 254.17879051 246.79940927 248.05889618 C247.81841318 246.51298798 247.81841318 246.51298798 248.85800302 244.93584931 C249.49866708 243.95422822 250.13933115 242.97260712 250.79940927 241.96123993 C251.37690927 241.07815156 251.95440927 240.19506318 252.54940927 239.28521454 C253.96614785 237.24924954 253.96614785 237.24924954 253.79940927 235.12139618 C254.48003427 234.48202118 255.16065927 233.84264618 255.86190927 233.18389618 C259.39556293 229.8510183 261.61493051 225.70876293 264.05331552 221.54717743 C265.88357373 219.00446972 267.04017286 218.39978454 269.79940927 217.12139618 C271.09172569 214.07940146 271.09172569 214.07940146 271.79940927 211.12139618 C272.45940927 211.12139618 273.11940927 211.12139618 273.79940927 211.12139618 C275.91629054 208.36303575 277.60803746 206.12519735 278.26620615 202.67290986 C278.83994516 199.92742155 279.71977087 198.30531621 281.26815927 195.98467743 C282.0009913 194.87189423 282.0009913 194.87189423 282.74862802 193.73663056 C283.26038583 192.97672822 283.77214365 192.21682587 284.29940927 191.43389618 C285.31050742 189.90960842 286.32095568 188.38488932 287.33065927 186.85967743 C287.77989755 186.18976777 288.22913583 185.5198581 288.6919874 184.82964814 C289.85039564 183.11216095 289.85039564 183.11216095 290.79940927 181.12139618 C291.45940927 181.12139618 292.11940927 181.12139618 292.79940927 181.12139618 C293.05536874 180.41402314 293.31132822 179.70665009 293.57504404 178.9778415 C295.64972813 174.13760144 298.70349001 169.91278924 301.62143075 165.54522431 C302.73897842 163.86829133 303.84264755 162.18276213 304.94589365 160.49639618 C305.64907724 159.43936493 306.35226083 158.38233368 307.07675302 157.29327118 C307.71862558 156.32486298 308.36049814 155.35645478 309.02182138 154.35870087 C310.79940927 152.12139618 310.79940927 152.12139618 313.79940927 151.12139618 C315.17621289 149.56854909 315.17621289 149.56854909 316.41903818 147.59893525 C316.91610269 146.85436066 317.4131672 146.10978608 317.92529428 145.34264863 C318.45351785 144.53229157 318.98174142 143.72193451 319.52597177 142.88702118 C320.07425638 142.05684479 320.62254098 141.2266684 321.18744028 140.37133515 C322.34629413 138.61195108 323.50102309 136.84984424 324.65194833 135.08526337 C326.41310374 132.38870641 328.19112517 129.70387201 329.97128427 127.01983368 C331.09471614 125.30957628 332.21714534 123.59865975 333.33847177 121.88702118 C333.8707438 121.08476105 334.40301584 120.28250092 334.95141733 119.45592988 C335.68755762 118.32015503 335.68755762 118.32015503 336.43856943 117.16143525 C337.08784906 116.17001526 337.08784906 116.17001526 337.75024545 115.15856659 C338.94937637 112.83020379 339.32128288 110.68552368 339.79940927 108.12139618 C341.35800302 105.48077118 341.35800302 105.48077118 343.23690927 102.87139618 C344.16310068 101.56428681 344.16310068 101.56428681 345.10800302 100.23077118 C346.79940927 98.12139618 346.79940927 98.12139618 348.79940927 97.12139618 C349.06753427 96.44077118 349.33565927 95.76014618 349.61190927 95.05889618 C350.89648019 91.88127338 352.53257585 89.23954828 354.37753427 86.36358368 C355.90346223 83.95731267 357.35217989 81.51321818 358.79940927 79.05889618 C365.58299958 67.72960103 365.58299958 67.72960103 368.79940927 66.12139618 C369.23446786 64.80075165 369.23446786 64.80075165 369.67831552 63.45342743 C370.9167626 59.77260737 372.59406917 57.04446848 374.73690927 53.80889618 C375.55332563 52.56411115 376.36973143 51.31931918 377.18612802 50.07452118 C377.61458017 49.42676728 378.04303232 48.77901337 378.48446786 48.11163056 C380.69071068 44.77236368 382.87157399 41.41673803 385.04940927 38.05889618 C385.49921152 37.36594452 385.94901376 36.67299286 386.41244638 35.95904267 C391.40067351 28.24270246 396.22786919 20.42696599 401.04940927 12.60577118 C401.77837411 11.4253122 401.77837411 11.4253122 402.52206552 10.22100556 C403.54169087 8.54501587 404.52130703 6.84470663 405.48690927 5.13702118 C406.79940927 3.12139618 406.79940927 3.12139618 409.79940927 1.12139618 C411.82594621 0.80465615 411.82594621 0.80465615 414.18127573 0.71200287 C415.07036064 0.67393462 415.95944555 0.63586636 416.87547243 0.59664452 C417.84439991 0.56630183 418.81332738 0.53595913 419.8116163 0.50469697 C420.83254436 0.46709826 421.85347242 0.42949955 422.90533769 0.39076149 C435.1361044 -0.01963982 447.36788083 -0.02251403 459.60409677 -0.01141632 C462.15525966 -0.01256181 464.70642241 -0.01404016 467.25758493 -0.01582611 C474.70187416 -0.01910926 482.14613495 -0.01337496 489.59041965 -0.00561368 C492.3758193 -0.00292735 495.16121923 -0.0010979 497.94661957 0.00071722 C531.48395606 0.02288057 565.02291286 0.04924829 598.55854166 0.41098511 C600.85713992 0.43384874 603.15572175 0.45132577 605.45437753 0.46728241 C609.60228818 0.4969651 613.7494609 0.55118367 617.89706552 0.60967743 C619.67841142 0.61927742 619.67841142 0.61927742 621.49574411 0.62907135 C622.56154199 0.64885544 623.62733987 0.66863953 624.72543466 0.68902314 C626.09968355 0.70567772 626.09968355 0.70567772 627.50169504 0.72266877 C630.20972342 1.1925989 631.1047481 2.01111992 632.79940927 4.12139618 C631.18264437 6.62708348 629.55664949 9.1258223 627.92440927 11.62139618 C627.46421396 12.33682587 627.00401865 13.05225556 626.52987802 13.78936493 C626.08515146 14.46612275 625.6404249 15.14288056 625.18222177 15.84014618 C624.77375009 16.46856415 624.36527841 17.09698212 623.9444288 17.74444306 C623.37764413 18.42603486 623.37764413 18.42603486 622.79940927 19.12139618 C622.13940927 19.12139618 621.47940927 19.12139618 620.79940927 19.12139618 C620.73495615 19.95155243 620.67050302 20.78170868 620.60409677 21.63702118 C619.57026591 26.11360917 617.49747164 29.11888583 614.92440927 32.87139618 C613.92095466 34.37517038 612.91972355 35.88043023 611.92050302 37.38702118 C611.14682382 38.55007782 611.14682382 38.55007782 610.35751474 39.73663056 C607.80654637 43.64102715 605.39806135 47.62968816 602.98690927 51.62139618 C599.39392996 57.55047588 595.74979929 63.42083337 591.79940927 69.12139618 C591.13940927 68.79139618 590.47940927 68.46139618 589.79940927 68.12139618 C587.60843275 71.45549088 586.36486764 74.1631876 585.79940927 78.12139618 C584.31440927 78.61639618 584.31440927 78.61639618 582.79940927 79.12139618 C582.46940927 80.77139618 582.13940927 82.42139618 581.79940927 84.12139618 C581.13940927 84.12139618 580.47940927 84.12139618 579.79940927 84.12139618 C579.65503427 84.88452118 579.51065927 85.64764618 579.36190927 86.43389618 C578.79940927 89.12139618 578.79940927 89.12139618 577.79940927 92.12139618 C577.13940927 92.12139618 576.47940927 92.12139618 575.79940927 92.12139618 C575.13940927 93.44139618 574.47940927 94.76139618 573.79940927 96.12139618 C573.13940927 96.12139618 572.47940927 96.12139618 571.79940927 96.12139618 C571.79940927 97.44139618 571.79940927 98.76139618 571.79940927 100.12139618 C570.31440927 101.11139618 570.31440927 101.11139618 568.79940927 102.12139618 C568.09264645 103.77145938 567.43205808 105.44152187 566.79940927 107.12139618 C565.67618042 109.08439754 564.50749457 111.02194763 563.29940927 112.93389618 C562.38675302 114.39762665 562.38675302 114.39762665 561.45565927 115.89092743 C560.90909677 116.62698212 560.36253427 117.36303681 559.79940927 118.12139618 C559.13940927 118.12139618 558.47940927 118.12139618 557.79940927 118.12139618 C557.46940927 119.44139618 557.13940927 120.76139618 556.79940927 122.12139618 C556.13940927 122.12139618 555.47940927 122.12139618 554.79940927 122.12139618 C554.6755787 122.71017548 554.55174814 123.29895478 554.42416513 123.90557587 C553.42963596 127.4328704 551.33977712 130.32566541 549.36190927 133.37139618 C548.74992685 134.34592743 548.74992685 134.34592743 548.12558115 135.34014618 C547.07450325 136.97248902 545.94269892 138.55225736 544.79940927 140.12139618 C544.13940927 140.12139618 543.47940927 140.12139618 542.79940927 140.12139618 C542.51065927 140.74014618 542.22190927 141.35889618 541.92440927 141.99639618 C540.79940927 144.12139618 540.79940927 144.12139618 538.79940927 146.12139618 C538.54804208 146.82522431 538.2966749 147.52905243 538.03769052 148.25420868 C536.28806733 152.30538666 533.67474601 155.51878395 530.98690927 158.99639618 C523.87259817 167.49873427 523.87259817 167.49873427 518.79940927 177.12139618 C518.13940927 177.12139618 517.47940927 177.12139618 516.79940927 177.12139618 C516.44556161 178.169404 516.44556161 178.169404 516.08456552 179.23858368 C514.55484166 182.67000073 512.54719369 185.28715547 510.23690927 188.24639618 C506.94791715 192.37769365 506.94791715 192.37769365 504.79940927 197.12139618 C504.13940927 197.12139618 503.47940927 197.12139618 502.79940927 197.12139618 C502.51065927 197.69889618 502.22190927 198.27639618 501.92440927 198.87139618 C500.8827426 200.95472952 499.84107594 203.03806285 498.79940927 205.12139618 C498.13940927 205.12139618 497.47940927 205.12139618 496.79940927 205.12139618 C496.51065927 205.69889618 496.22190927 206.27639618 495.92440927 206.87139618 C494.8827426 208.95472952 493.84107594 211.03806285 492.79940927 213.12139618 C492.13940927 213.12139618 491.47940927 213.12139618 490.79940927 213.12139618 C490.46940927 214.44139618 490.13940927 215.76139618 489.79940927 217.12139618 C489.13940927 217.12139618 488.47940927 217.12139618 487.79940927 217.12139618 C487.57382333 217.798154 487.3482374 218.47491181 487.11581552 219.17217743 C485.43840907 222.93016518 483.17407095 226.00993759 480.73690927 229.30889618 C477.51569564 233.55664482 477.51569564 233.55664482 474.79940927 238.12139618 C474.13940927 238.12139618 473.47940927 238.12139618 472.79940927 238.12139618 C472.50163583 239.09786103 472.50163583 239.09786103 472.19784677 240.09405243 C470.21067996 244.39588003 467.34904452 247.85156669 464.42440927 251.55889618 C460.69968265 256.31873099 457.14271294 261.08231374 453.79940927 266.12139618 C452.17016034 268.22119613 450.52786505 270.30145223 448.86190927 272.37139618 C443.72740345 278.81343047 438.89103678 285.44711412 434.12777841 292.16729462 C433.60691659 292.89851532 433.08605478 293.62973603 432.54940927 294.38311493 C432.09050302 295.0323996 431.63159677 295.68168427 431.15878427 296.35064423 C429.81953431 298.09518086 428.38947917 299.60527622 426.79940927 301.12139618 C426.46940927 300.79139618 426.13940927 300.46139618 425.79940927 300.12139618 C424.27492296 303.10408679 422.8600086 305.93959819 421.79940927 309.12139618 C420.80940927 309.45139618 419.81940927 309.78139618 418.79940927 310.12139618 C416.62269724 313.45048517 415.82433974 317.31451157 414.79940927 321.12139618 C413.80940927 321.12139618 412.81940927 321.12139618 411.79940927 321.12139618 C411.54288583 321.66666962 411.2863624 322.21194306 411.02206552 322.77373993 C406.73441132 331.00658395 400.9566426 338.31029757 395.02597177 345.40264618 C390.6640913 350.72873182 386.68865311 356.34703417 382.81503427 362.03545868 C382.19112802 362.95069306 381.56722177 363.86592743 380.92440927 364.80889618 C380.3701124 365.63776337 379.81581552 366.46663056 379.24472177 367.32061493 C378.52929208 368.21200165 378.52929208 368.21200165 377.79940927 369.12139618 C377.13940927 369.12139618 376.47940927 369.12139618 375.79940927 369.12139618 C375.53128427 369.88452118 375.26315927 370.64764618 374.98690927 371.43389618 C373.83605556 374.03845985 372.90373379 375.28011223 370.79940927 377.12139618 C368.65347013 378.98292287 368.65347013 378.98292287 367.92440927 381.55889618 C366.62987259 384.50756307 365.32355162 385.22828942 362.79940927 387.12139618 C362.10900353 388.77836997 361.44634578 390.44697229 360.79940927 392.12139618 C359.96526309 393.04498271 359.13111692 393.96856925 358.27169359 394.92014325 C354.36161837 400.35644056 355.11667307 406.66836437 355.1803602 413.09144318 C355.1761945 414.52421923 355.16982704 415.95699028 355.1614542 417.38974792 C355.14479136 421.3185535 355.15911983 425.24672566 355.17851532 429.1754961 C355.19396333 433.41641033 355.18048916 437.65724349 355.17042673 441.8981601 C355.15681318 449.24707443 355.16111301 456.5958023 355.17725885 463.94470894 C355.20035468 474.58953709 355.19300428 485.23417898 355.17772765 495.87901338 C355.1534522 513.17588799 355.14925008 530.47270299 355.15976083 547.76958954 C355.16038466 548.804634 355.16100848 549.83967846 355.16165121 550.9060879 C355.16292244 553.00065792 355.16419667 555.09522793 355.16547392 557.18979795 C355.1661063 558.22804324 355.16673868 559.26628853 355.16739023 560.33599579 C355.16802837 561.37501554 355.16866652 562.41403529 355.169324 563.48454048 C355.17611851 575.00273359 355.1781208 586.52092584 355.17831552 598.03912079 C355.17833835 599.06956593 355.17836118 600.10001106 355.17838471 601.16168181 C355.17831532 618.38113044 355.16624512 635.60055652 355.14735603 652.81999427 C355.13642677 663.42826546 355.13716738 674.03641781 355.15329577 684.64468309 C355.16381207 691.92587713 355.16395713 699.20702359 355.15617763 706.48822091 C355.15211513 710.68083307 355.15290381 714.87329327 355.16710985 719.06588662 C355.2329508 739.58703253 354.88417342 758.88705158 347.98690927 778.49639618 C347.63942636 779.5137082 347.29194345 780.53102021 346.93393075 781.57915986 C344.69176307 787.99703694 342.20170807 794.08014851 338.92831552 800.04717743 C337.67192315 802.2109305 337.67192315 802.2109305 336.79940927 805.12139618 C336.13940927 805.12139618 335.47940927 805.12139618 334.79940927 805.12139618 C334.56093271 805.80975556 334.32245615 806.49811493 334.07675302 807.20733368 C332.55440866 810.68032724 330.5396744 813.66445393 328.36190927 816.74639618 C327.96681161 817.31873993 327.57171396 817.89108368 327.16464365 818.48077118 C325.21832734 821.26584943 323.23817841 823.7624677 320.79940927 826.12139618 C320.28378427 827.00827118 319.76815927 827.89514618 319.23690927 828.80889618 C318.76253427 829.57202118 318.28815927 830.33514618 317.79940927 831.12139618 C317.13940927 831.12139618 316.47940927 831.12139618 315.79940927 831.12139618 C315.46940927 832.11139618 315.13940927 833.10139618 314.79940927 834.12139618 C312.36190927 836.80889618 312.36190927 836.80889618 309.79940927 839.12139618 C309.13940927 839.12139618 308.47940927 839.12139618 307.79940927 839.12139618 C307.79940927 839.78139618 307.79940927 840.44139618 307.79940927 841.12139618 C307.13940927 841.12139618 306.47940927 841.12139618 305.79940927 841.12139618 C305.79940927 841.78139618 305.79940927 842.44139618 305.79940927 843.12139618 C305.13940927 843.12139618 304.47940927 843.12139618 303.79940927 843.12139618 C303.79940927 843.78139618 303.79940927 844.44139618 303.79940927 845.12139618 C302.08456552 846.55889618 302.08456552 846.55889618 299.86190927 848.12139618 C296.8130829 850.16956423 296.8130829 850.16956423 294.79940927 853.12139618 C291.46918548 855.18613494 288.32266181 856.90682973 284.69394052 858.39483368 C280.75397235 860.05929266 277.09515134 862.14195696 273.37631357 864.24664032 C259.38308468 872.15467456 245.06421895 878.15540781 229.79940927 883.12139618 C229.79940927 883.78139618 229.79940927 884.44139618 229.79940927 885.12139618 C213.57040008 889.31609618 198.00892582 892.28748557 181.16979921 892.25003064 C180.15424097 892.25178367 179.13868273 892.25353671 178.09235001 892.25534287 C174.7037448 892.25997911 171.31518296 892.25754351 167.92657602 892.25510895 C165.46669201 892.25697812 163.00680831 892.25927925 160.54692507 892.26197428 C155.20588572 892.26681061 149.86485883 892.2685483 144.52381837 892.26751816 C136.58105367 892.26598999 128.63829895 892.27016218 120.69553619 892.27539279 C105.68203205 892.28505378 90.66853133 892.28787657 75.65502445 892.28844985 C64.05836784 892.28890976 52.46171257 892.29097002 40.8650564 892.29415047 C37.52442336 892.29504805 34.18379033 892.29593786 30.84315729 892.29682535 C30.01261434 892.2970464 29.18207139 892.29726745 28.32636047 892.29749519 C4.97069654 892.30364775 -18.38496693 892.30759592 -41.7406317 892.30715191 C-42.62084439 892.30713633 -43.50105707 892.30712076 -44.40794287 892.30710471 C-48.86900833 892.3070216 -53.3300738 892.30692256 -57.79113926 892.30682 C-58.67708815 892.30680005 -59.56303704 892.30678011 -60.47583286 892.30675956 C-62.26743707 892.30671912 -64.05904129 892.30667732 -65.8506455 892.30663417 C-93.71925225 892.30602154 -121.58784684 892.31352632 -149.4564501 892.32720673 C-180.78289666 892.34257831 -212.10933521 892.3511723 -243.43578577 892.35024351 C-246.77830493 892.35016888 -250.1208241 892.35012017 -253.46334326 892.35008919 C-254.2863264 892.35007754 -255.10930955 892.35006588 -255.95723157 892.35005388 C-269.18201016 892.35002315 -282.40677815 892.35639993 -295.6315536 892.36502146 C-308.93073309 892.37351197 -322.22989714 892.37447695 -335.52907784 892.36791214 C-343.42180071 892.3642258 -351.31447654 892.36602136 -359.20719439 892.37585448 C-365.11230617 892.38258741 -371.01738151 892.37877625 -376.92249297 892.37098125 C-379.30266653 892.36944804 -381.68284523 892.37125565 -384.06301273 892.37684133 C-401.31776849 892.41463527 -417.74252638 891.42203438 -434.63809073 887.62139618 C-435.64162589 887.40870087 -436.64516104 887.19600556 -437.67910635 886.97686493 C-444.94436102 885.37762589 -444.94436102 885.37762589 -447.20059073 883.12139618 C-449.67379783 881.47259145 -451.54266784 880.51426981 -454.27090323 879.49248993 C-469.8078731 873.55211231 -484.14536182 866.76776219 -497.56387198 856.87139618 C-499.97011938 855.04485746 -499.97011938 855.04485746 -502.20449698 854.68389618 C-505.46829378 853.76415697 -507.39906542 851.423652 -509.82559073 849.12139618 C-513.22921509 845.73873116 -513.22921509 845.73873116 -517.20059073 843.12139618 C-517.20059073 842.46139618 -517.20059073 841.80139618 -517.20059073 841.12139618 C-517.86059073 841.12139618 -518.52059073 841.12139618 -519.20059073 841.12139618 C-520.92715323 839.44170868 -520.92715323 839.44170868 -522.82559073 837.24639618 C-523.45723135 836.52709931 -524.08887198 835.80780243 -524.73965323 835.06670868 C-526.20059073 833.12139618 -526.20059073 833.12139618 -526.20059073 831.12139618 C-526.86059073 831.12139618 -527.52059073 831.12139618 -528.20059073 831.12139618 C-529.22671022 829.47068223 -530.22367216 827.80169612 -531.20059073 826.12139618 C-531.6620751 825.67022431 -532.12355948 825.21905243 -532.59902823 824.75420868 C-543.32606133 813.81786762 -554.41074116 792.3946504 -556.63809073 777.12139618 C-557.03124041 774.22098108 -557.03124041 774.22098108 -558.19277823 772.21905243 C-559.29592081 769.92297661 -559.62741461 768.0844632 -559.88809073 765.55889618 C-560.01764151 764.41227509 -560.01764151 764.41227509 -560.14980948 763.24248993 C-560.20059073 761.12139618 -560.20059073 761.12139618 -559.20059073 758.12139618 C-559.86059073 758.12139618 -560.52059073 758.12139618 -561.20059073 758.12139618 C-562.01679996 755.25805088 -562.32567269 752.72016124 -562.32593989 749.74647516 C-562.32844341 748.87052481 -562.33094693 747.99457445 -562.33352631 747.09208015 C-562.33118515 746.13224506 -562.32884398 745.17240997 -562.32643187 744.18348897 C-562.32788531 743.1577071 -562.32933875 742.13192524 -562.33083624 741.07505909 C-562.33450936 737.60968063 -562.33100373 734.14434579 -562.32757437 730.6789676 C-562.32872567 728.18072361 -562.33031325 725.6824798 -562.33230162 723.18423635 C-562.33561664 717.73812254 -562.33579997 712.29202227 -562.33325446 706.84590828 C-562.32947956 698.74764564 -562.33140174 690.64939139 -562.33446276 682.5511288 C-562.33973504 668.09039243 -562.33926956 653.62966048 -562.33638385 639.16892369 C-562.33387123 626.51618585 -562.33321023 613.86344963 -562.3344065 601.2107116 C-562.33448288 600.37239188 -562.33455927 599.53407216 -562.33463797 598.67034882 C-562.33494929 595.2676222 -562.33526769 591.86489558 -562.33559773 588.46216897 C-562.33865847 556.5260994 -562.33588036 524.59003265 -562.33050083 492.65396352 C-562.32575373 464.2563061 -562.32618075 435.85865317 -562.33096182 407.46099579 C-562.33631139 375.57991023 -562.33844273 343.69882716 -562.33534956 311.81774122 C-562.33502882 308.42203864 -562.33471599 305.02633605 -562.3344065 301.63063347 C-562.33432742 300.79448086 -562.33424834 299.95832824 -562.33416687 299.09683767 C-562.33302743 286.44735727 -562.33436329 273.79787867 -562.33688605 261.14839852 C-562.33973854 246.77363746 -562.33904492 232.39888151 -562.3336053 218.02412108 C-562.33065852 209.97033658 -562.33049241 201.91656314 -562.33425148 193.86277891 C-562.33674283 187.86590247 -562.33406128 181.86904055 -562.3292769 175.87216499 C-562.32815152 173.43352128 -562.32874654 170.9948761 -562.33115269 168.55623332 C-562.33415347 165.26472705 -562.33111554 161.97328289 -562.32643187 158.68177998 C-562.32877304 157.71492139 -562.3311142 156.7480628 -562.33352631 155.75190547 C-562.32977104 154.44924577 -562.32977104 154.44924577 -562.32593989 153.12026972 C-562.32587213 152.36637443 -562.32580438 151.61247915 -562.32573456 150.83573856 C-562.20059073 149.12139618 -562.20059073 149.12139618 -561.20059073 148.12139618 C-560.91410194 145.41112128 -560.75223652 142.7005001 -560.57949698 139.98077118 C-560.19109924 137.04976969 -559.34935283 134.83107168 -558.20059073 132.12139618 C-557.85456517 130.670652 -557.54082005 129.21174897 -557.26309073 127.74639618 C-556.38327825 123.55681293 -554.9872702 120.00548199 -553.20059073 116.12139618 C-552.87059073 115.13139618 -552.54059073 114.14139618 -552.20059073 113.12139618 C-550.94401163 110.08627436 -549.57510722 107.10467152 -548.20059073 104.12139618 C-547.78937979 103.2203415 -547.37816885 102.31928681 -546.95449698 101.39092743 C-544.0901833 95.37830296 -540.82186892 89.78230757 -537.13809073 84.24639618 C-536.72671866 83.62812958 -536.31534659 83.00986298 -535.8915087 82.37286103 C-528.7947292 71.91846542 -528.7947292 71.91846542 -525.20059073 70.12139618 C-524.93246573 69.50264618 -524.66434073 68.88389618 -524.38809073 68.24639618 C-523.20059073 66.12139618 -523.20059073 66.12139618 -520.63809073 64.62139618 C-518.04805494 63.41279669 -518.04805494 63.41279669 -517.70059073 61.24639618 C-517.53559073 60.54514618 -517.37059073 59.84389618 -517.20059073 59.12139618 C-515.07559073 56.80889618 -515.07559073 56.80889618 -512.20059073 54.12139618 C-511.62437979 53.51424775 -511.04816885 52.90709931 -510.45449698 52.28155243 C-509.85508292 51.65120087 -509.25566885 51.02084931 -508.63809073 50.37139618 C-507.80084464 49.48194306 -507.80084464 49.48194306 -506.94668448 48.57452118 C-505.20059073 47.12139618 -505.20059073 47.12139618 -503.32461417 46.69244111 C-500.88344283 46.03613079 -499.47646292 45.05887527 -497.47012198 43.53155243 C-496.75743155 42.99900849 -496.04474112 42.46646454 -495.31045401 41.9177829 C-494.55232413 41.34560029 -493.79419425 40.77341767 -493.01309073 40.18389618 C-485.50530052 34.62342464 -477.8006219 29.74658452 -469.67715323 25.14483368 C-466.27553345 23.20682151 -463.26169292 21.01135286 -460.26309073 18.49639618 C-457.85836172 16.89324351 -456.04596078 16.5377918 -453.20059073 16.12139618 C-451.53392406 15.78806285 -449.8672574 15.45472952 -448.20059073 15.12139618 C-448.20059073 14.46139618 -448.20059073 13.80139618 -448.20059073 13.12139618 C-439.28267856 9.95901598 -430.37551467 6.96078897 -421.13809073 4.87139618 C-420.17056876 4.64564911 -420.17056876 4.64564911 -419.18350089 4.4153415 C-404.12461919 1.17256271 -388.97545078 0.81812688 -373.64053214 0.80254853 C-371.50426492 0.79321671 -369.36800122 0.78304844 -367.23174155 0.77212441 C-361.40253527 0.74482247 -355.57335326 0.7296405 -349.74409974 0.71670449 C-343.43488334 0.7006906 -337.12571151 0.67372611 -330.81652701 0.64837372 C-318.4605198 0.60064909 -306.10450686 0.56399399 -293.74845171 0.53147447 C-283.69350349 0.50491176 -273.6385753 0.47413242 -263.58364737 0.44079316 C-186.99883068 0.18807842 -110.41372256 0.05066818 0 0 Z M-391.20059073 2.12139618 C-391.20059073 2.45139618 -391.20059073 2.78139618 -391.20059073 3.12139618 C-306.39059073 3.12139618 -221.58059073 3.12139618 -134.20059073 3.12139618 C-134.20059073 2.79139618 -134.20059073 2.46139618 -134.20059073 2.12139618 C-219.01059073 2.12139618 -303.82059073 2.12139618 -391.20059073 2.12139618 Z M-132.20059073 2.12139618 C-132.20059073 2.45139618 -132.20059073 2.78139618 -132.20059073 3.12139618 C-77.75059073 3.12139618 -23.30059073 3.12139618 32.79940927 3.12139618 C32.79940927 2.79139618 32.79940927 2.46139618 32.79940927 2.12139618 C-21.65059073 2.12139618 -76.10059073 2.12139618 -132.20059073 2.12139618 Z M41.79940927 2.12139618 C41.79940927 2.45139618 41.79940927 2.78139618 41.79940927 3.12139618 C53.01940927 3.12139618 64.23940927 3.12139618 75.79940927 3.12139618 C75.79940927 2.79139618 75.79940927 2.46139618 75.79940927 2.12139618 C64.57940927 2.12139618 53.35940927 2.12139618 41.79940927 2.12139618 Z M76.79940927 2.12139618 C76.79940927 2.45139618 76.79940927 2.78139618 76.79940927 3.12139618 C91.97940927 3.12139618 107.15940927 3.12139618 122.79940927 3.12139618 C122.79940927 2.79139618 122.79940927 2.46139618 122.79940927 2.12139618 C107.61940927 2.12139618 92.43940927 2.12139618 76.79940927 2.12139618 Z M131.79940927 2.12139618 C131.79940927 2.45139618 131.79940927 2.78139618 131.79940927 3.12139618 C137.07940927 3.12139618 142.35940927 3.12139618 147.79940927 3.12139618 C147.79940927 2.79139618 147.79940927 2.46139618 147.79940927 2.12139618 C142.51940927 2.12139618 137.23940927 2.12139618 131.79940927 2.12139618 Z M409.79940927 2.12139618 C409.79940927 2.45139618 409.79940927 2.78139618 409.79940927 3.12139618 C415.40940927 3.12139618 421.01940927 3.12139618 426.79940927 3.12139618 C426.79940927 2.79139618 426.79940927 2.46139618 426.79940927 2.12139618 C421.18940927 2.12139618 415.57940927 2.12139618 409.79940927 2.12139618 Z M431.79940927 2.12139618 C431.79940927 2.45139618 431.79940927 2.78139618 431.79940927 3.12139618 C497.13940927 3.12139618 562.47940927 3.12139618 629.79940927 3.12139618 C629.79940927 2.79139618 629.79940927 2.46139618 629.79940927 2.12139618 C564.45940927 2.12139618 499.11940927 2.12139618 431.79940927 2.12139618 Z M-403.20059073 3.12139618 C-403.20059073 3.45139618 -403.20059073 3.78139618 -403.20059073 4.12139618 C-400.56059073 4.12139618 -397.92059073 4.12139618 -395.20059073 4.12139618 C-395.20059073 3.79139618 -395.20059073 3.46139618 -395.20059073 3.12139618 C-397.84059073 3.12139618 -400.48059073 3.12139618 -403.20059073 3.12139618 Z M152.79940927 3.12139618 C152.79940927 3.45139618 152.79940927 3.78139618 152.79940927 4.12139618 C155.10940927 4.12139618 157.41940927 4.12139618 159.79940927 4.12139618 C159.79940927 3.79139618 159.79940927 3.46139618 159.79940927 3.12139618 C157.48940927 3.12139618 155.17940927 3.12139618 152.79940927 3.12139618 Z M629.79940927 3.12139618 C630.79940927 5.12139618 630.79940927 5.12139618 630.79940927 5.12139618 Z M-410.20059073 4.12139618 C-410.20059073 4.45139618 -410.20059073 4.78139618 -410.20059073 5.12139618 C-408.55059073 5.12139618 -406.90059073 5.12139618 -405.20059073 5.12139618 C-405.20059073 4.79139618 -405.20059073 4.46139618 -405.20059073 4.12139618 C-406.85059073 4.12139618 -408.50059073 4.12139618 -410.20059073 4.12139618 Z M160.79940927 4.12139618 C164.79940927 5.12139618 164.79940927 5.12139618 164.79940927 5.12139618 Z M-417.20059073 5.12139618 C-417.20059073 5.45139618 -417.20059073 5.78139618 -417.20059073 6.12139618 C-415.55059073 6.12139618 -413.90059073 6.12139618 -412.20059073 6.12139618 C-412.20059073 5.79139618 -412.20059073 5.46139618 -412.20059073 5.12139618 C-413.85059073 5.12139618 -415.50059073 5.12139618 -417.20059073 5.12139618 Z M165.79940927 5.12139618 C169.79940927 6.12139618 169.79940927 6.12139618 169.79940927 6.12139618 Z M622.79940927 14.12139618 C623.79940927 16.12139618 623.79940927 16.12139618 623.79940927 16.12139618 Z M591.79940927 64.12139618 C591.46940927 64.78139618 591.13940927 65.44139618 590.79940927 66.12139618 C591.45940927 66.12139618 592.11940927 66.12139618 592.79940927 66.12139618 C592.46940927 65.46139618 592.13940927 64.80139618 591.79940927 64.12139618 Z M232.79940927 67.12139618 C232.79940927 69.76139618 232.79940927 72.40139618 232.79940927 75.12139618 C233.12940927 75.12139618 233.45940927 75.12139618 233.79940927 75.12139618 C233.79940927 72.48139618 233.79940927 69.84139618 233.79940927 67.12139618 C233.46940927 67.12139618 233.13940927 67.12139618 232.79940927 67.12139618 Z M233.79940927 75.12139618 C233.79940927 78.42139618 233.79940927 81.72139618 233.79940927 85.12139618 C234.12940927 85.12139618 234.45940927 85.12139618 234.79940927 85.12139618 C234.79940927 81.82139618 234.79940927 78.52139618 234.79940927 75.12139618 C234.46940927 75.12139618 234.13940927 75.12139618 233.79940927 75.12139618 Z M232.79940927 85.12139618 C232.79940927 88.09139618 232.79940927 91.06139618 232.79940927 94.12139618 C233.12940927 94.12139618 233.45940927 94.12139618 233.79940927 94.12139618 C233.79940927 91.15139618 233.79940927 88.18139618 233.79940927 85.12139618 C233.46940927 85.12139618 233.13940927 85.12139618 232.79940927 85.12139618 Z M231.79940927 94.12139618 C232.79940927 98.12139618 232.79940927 98.12139618 232.79940927 98.12139618 Z M230.79940927 99.12139618 C231.79940927 102.12139618 231.79940927 102.12139618 231.79940927 102.12139618 Z M229.79940927 102.12139618 C230.79940927 104.12139618 230.79940927 104.12139618 230.79940927 104.12139618 Z M228.79940927 105.12139618 C229.79940927 107.12139618 229.79940927 107.12139618 229.79940927 107.12139618 Z M226.79940927 110.12139618 C227.79940927 112.12139618 227.79940927 112.12139618 227.79940927 112.12139618 Z M-557.20059073 129.12139618 C-556.20059073 131.12139618 -556.20059073 131.12139618 -556.20059073 131.12139618 Z M-559.20059073 138.12139618 C-558.20059073 140.12139618 -558.20059073 140.12139618 -558.20059073 140.12139618 Z M-560.20059073 143.12139618 C-559.20059073 146.12139618 -559.20059073 146.12139618 -559.20059073 146.12139618 Z M310.79940927 153.12139618 C311.79940927 155.12139618 311.79940927 155.12139618 311.79940927 155.12139618 Z M263.79940927 224.12139618 C264.79940927 226.12139618 264.79940927 226.12139618 264.79940927 226.12139618 Z M261.79940927 227.12139618 C262.79940927 229.12139618 262.79940927 229.12139618 262.79940927 229.12139618 Z M-408.20059073 262.12139618 C-408.20059073 262.45139618 -408.20059073 262.78139618 -408.20059073 263.12139618 C-345.50059073 263.12139618 -282.80059073 263.12139618 -218.20059073 263.12139618 C-218.20059073 262.79139618 -218.20059073 262.46139618 -218.20059073 262.12139618 C-280.90059073 262.12139618 -343.60059073 262.12139618 -408.20059073 262.12139618 Z M85.79940927 300.12139618 C86.79940927 302.12139618 86.79940927 302.12139618 86.79940927 302.12139618 Z M210.79940927 303.12139618 C211.79940927 305.12139618 211.79940927 305.12139618 211.79940927 305.12139618 Z M-330.20059073 390.12139618 C-329.20059073 392.12139618 -329.20059073 392.12139618 -329.20059073 392.12139618 Z M-329.20059073 393.12139618 C-328.54059073 393.78139618 -327.88059073 394.44139618 -327.20059073 395.12139618 C-327.20059073 394.46139618 -327.20059073 393.80139618 -327.20059073 393.12139618 C-327.86059073 393.12139618 -328.52059073 393.12139618 -329.20059073 393.12139618 Z M-138.20059073 393.12139618 C-137.20059073 395.12139618 -137.20059073 395.12139618 -137.20059073 395.12139618 Z M352.79940927 453.12139618 C353.79940927 456.12139618 353.79940927 456.12139618 353.79940927 456.12139618 Z M-99.20059073 456.12139618 C-98.20059073 458.12139618 -98.20059073 458.12139618 -98.20059073 458.12139618 Z M-98.20059073 458.12139618 C-97.20059073 460.12139618 -97.20059073 460.12139618 -97.20059073 460.12139618 Z M-93.20059073 466.12139618 C-92.20059073 468.12139618 -92.20059073 468.12139618 -92.20059073 468.12139618 Z M352.79940927 467.12139618 C352.79940927 470.09139618 352.79940927 473.06139618 352.79940927 476.12139618 C353.12940927 476.12139618 353.45940927 476.12139618 353.79940927 476.12139618 C353.79940927 473.15139618 353.79940927 470.18139618 353.79940927 467.12139618 C353.46940927 467.12139618 353.13940927 467.12139618 352.79940927 467.12139618 Z M-85.20059073 479.12139618 C-84.20059073 481.12139618 -84.20059073 481.12139618 -84.20059073 481.12139618 Z M352.79940927 524.12139618 C352.79940927 525.77139618 352.79940927 527.42139618 352.79940927 529.12139618 C353.12940927 529.12139618 353.45940927 529.12139618 353.79940927 529.12139618 C353.79940927 527.47139618 353.79940927 525.82139618 353.79940927 524.12139618 C353.46940927 524.12139618 353.13940927 524.12139618 352.79940927 524.12139618 Z M-240.20059073 535.12139618 C-239.20059073 537.12139618 -239.20059073 537.12139618 -239.20059073 537.12139618 Z M352.79940927 576.12139618 C352.79940927 580.08139618 352.79940927 584.04139618 352.79940927 588.12139618 C353.12940927 588.12139618 353.45940927 588.12139618 353.79940927 588.12139618 C353.79940927 584.16139618 353.79940927 580.20139618 353.79940927 576.12139618 C353.46940927 576.12139618 353.13940927 576.12139618 352.79940927 576.12139618 Z M352.79940927 686.12139618 C352.79940927 690.74139618 352.79940927 695.36139618 352.79940927 700.12139618 C353.12940927 700.12139618 353.45940927 700.12139618 353.79940927 700.12139618 C353.79940927 695.50139618 353.79940927 690.88139618 353.79940927 686.12139618 C353.46940927 686.12139618 353.13940927 686.12139618 352.79940927 686.12139618 Z M352.79940927 745.12139618 C353.79940927 748.12139618 353.79940927 748.12139618 353.79940927 748.12139618 Z M350.79940927 756.12139618 C351.79940927 760.12139618 351.79940927 760.12139618 351.79940927 760.12139618 Z M349.79940927 761.12139618 C350.79940927 765.12139618 350.79940927 765.12139618 350.79940927 765.12139618 Z M-559.20059073 763.12139618 C-558.20059073 766.12139618 -558.20059073 766.12139618 -558.20059073 766.12139618 Z M348.79940927 766.12139618 C349.79940927 769.12139618 349.79940927 769.12139618 349.79940927 769.12139618 Z M347.79940927 770.12139618 C348.79940927 772.12139618 348.79940927 772.12139618 348.79940927 772.12139618 Z M346.79940927 773.12139618 C347.79940927 775.12139618 347.79940927 775.12139618 347.79940927 775.12139618 Z M345.79940927 776.12139618 C346.79940927 778.12139618 346.79940927 778.12139618 346.79940927 778.12139618 Z M344.79940927 779.12139618 C345.79940927 781.12139618 345.79940927 781.12139618 345.79940927 781.12139618 Z M-554.20059073 781.12139618 C-553.20059073 783.12139618 -553.20059073 783.12139618 -553.20059073 783.12139618 Z M-551.20059073 789.12139618 C-550.20059073 791.12139618 -550.20059073 791.12139618 -550.20059073 791.12139618 Z M-440.20059073 884.12139618 C-436.20059073 885.12139618 -436.20059073 885.12139618 -436.20059073 885.12139618 Z M-436.20059073 885.12139618 C-432.20059073 886.12139618 -432.20059073 886.12139618 -432.20059073 886.12139618 Z M218.79940927 885.12139618 C222.79940927 886.12139618 222.79940927 886.12139618 222.79940927 886.12139618 Z M-432.20059073 886.12139618 C-432.20059073 886.45139618 -432.20059073 886.78139618 -432.20059073 887.12139618 C-430.55059073 887.12139618 -428.90059073 887.12139618 -427.20059073 887.12139618 C-427.20059073 886.79139618 -427.20059073 886.46139618 -427.20059073 886.12139618 C-428.85059073 886.12139618 -430.50059073 886.12139618 -432.20059073 886.12139618 Z M213.79940927 886.12139618 C217.79940927 887.12139618 217.79940927 887.12139618 217.79940927 887.12139618 Z M-427.20059073 887.12139618 C-427.20059073 887.45139618 -427.20059073 887.78139618 -427.20059073 888.12139618 C-425.22059073 888.12139618 -423.24059073 888.12139618 -421.20059073 888.12139618 C-421.20059073 887.79139618 -421.20059073 887.46139618 -421.20059073 887.12139618 C-423.18059073 887.12139618 -425.16059073 887.12139618 -427.20059073 887.12139618 Z M207.79940927 887.12139618 C207.79940927 887.45139618 207.79940927 887.78139618 207.79940927 888.12139618 C209.77940927 888.12139618 211.75940927 888.12139618 213.79940927 888.12139618 C213.79940927 887.79139618 213.79940927 887.46139618 213.79940927 887.12139618 C211.81940927 887.12139618 209.83940927 887.12139618 207.79940927 887.12139618 Z M-421.20059073 888.12139618 C-421.20059073 888.45139618 -421.20059073 888.78139618 -421.20059073 889.12139618 C-419.22059073 889.12139618 -417.24059073 889.12139618 -415.20059073 889.12139618 C-415.20059073 888.79139618 -415.20059073 888.46139618 -415.20059073 888.12139618 C-417.18059073 888.12139618 -419.16059073 888.12139618 -421.20059073 888.12139618 Z M200.79940927 888.12139618 C200.79940927 888.45139618 200.79940927 888.78139618 200.79940927 889.12139618 C203.10940927 889.12139618 205.41940927 889.12139618 207.79940927 889.12139618 C207.79940927 888.79139618 207.79940927 888.46139618 207.79940927 888.12139618 C205.48940927 888.12139618 203.17940927 888.12139618 200.79940927 888.12139618 Z M-414.20059073 889.12139618 C-414.20059073 889.45139618 -414.20059073 889.78139618 -414.20059073 890.12139618 C-410.57059073 890.12139618 -406.94059073 890.12139618 -403.20059073 890.12139618 C-403.20059073 889.79139618 -403.20059073 889.46139618 -403.20059073 889.12139618 C-406.83059073 889.12139618 -410.46059073 889.12139618 -414.20059073 889.12139618 Z M188.79940927 889.12139618 C188.79940927 889.45139618 188.79940927 889.78139618 188.79940927 890.12139618 C192.42940927 890.12139618 196.05940927 890.12139618 199.79940927 890.12139618 C199.79940927 889.79139618 199.79940927 889.46139618 199.79940927 889.12139618 C196.16940927 889.12139618 192.53940927 889.12139618 188.79940927 889.12139618 Z M-402.20059073 890.12139618 C-402.20059073 890.45139618 -402.20059073 890.78139618 -402.20059073 891.12139618 C-207.83059073 891.12139618 -13.46059073 891.12139618 186.79940927 891.12139618 C186.79940927 890.79139618 186.79940927 890.46139618 186.79940927 890.12139618 C-7.57059073 890.12139618 -201.94059073 890.12139618 -402.20059073 890.12139618 Z " fill="#010100" transform="translate(733.2005907297134,84.87860381603241)"/>
<path d="M0 0 C0.33 0 0.66 0 1 0 C1 14.52 1 29.04 1 44 C0.67 44 0.34 44 0 44 C0 29.48 0 14.96 0 0 Z " fill="#000000" transform="translate(170,366)"/>
<path d="M0 0 C0.33 0 0.66 0 1 0 C1 10.23 1 20.46 1 31 C0.67 31 0.34 31 0 31 C0 20.77 0 10.54 0 0 Z " fill="#000000" transform="translate(170,414)"/>
<path d="M0 0 C0.33 0 0.66 0 1 0 C1 8.58 1 17.16 1 26 C0.67 26 0.34 26 0 26 C0 17.42 0 8.84 0 0 Z " fill="#000000" transform="translate(170,521)"/>
<path d="M0 0 C0.33 0 0.66 0 1 0 C1 7.26 1 14.52 1 22 C0.67 22 0.34 22 0 22 C0 14.74 0 7.48 0 0 Z " fill="#000000" transform="translate(170,657)"/>
<path d="M0 0 C0.33 0 0.66 0 1 0 C1 6.6 1 13.2 1 20 C0.67 20 0.34 20 0 20 C0 13.4 0 6.8 0 0 Z " fill="#000000" transform="translate(170,739)"/>
<path d="M0 0 C0.33 0 0.66 0 1 0 C1 6.6 1 13.2 1 20 C0.67 20 0.34 20 0 20 C0 13.4 0 6.8 0 0 Z " fill="#000000" transform="translate(170,455)"/>
<path d="M0 0 C0.33 0 0.66 0 1 0 C1 5.61 1 11.22 1 17 C0.67 17 0.34 17 0 17 C0 11.39 0 5.78 0 0 Z " fill="#000000" transform="translate(170,775)"/>
<path d="M0 0 C0.33 0 0.66 0 1 0 C1 5.28 1 10.56 1 16 C0.67 16 0.34 16 0 16 C0 10.72 0 5.44 0 0 Z " fill="#000000" transform="translate(170,809)"/>
<path d="M0 0 C-1.24420647 0.5345256 -2.49570936 1.05208611 -3.75 1.5625 C-4.44609375 1.85253906 -5.1421875 2.14257812 -5.859375 2.44140625 C-8.30012784 3.07831803 -9.6403655 2.80248831 -12 2 C-10.56656 1.46809459 -9.12804633 0.94984742 -7.6875 0.4375 C-6.48673828 0.00244141 -6.48673828 0.00244141 -5.26171875 -0.44140625 C-3 -1 -3 -1 0 0 Z " fill="#000000" transform="translate(975,966)"/>
<path d="M0 0 C0.33 0 0.66 0 1 0 C1 4.95 1 9.9 1 15 C0.67 15 0.34 15 0 15 C0 10.05 0 5.1 0 0 Z " fill="#000000" transform="translate(170,478)"/>
<path d="M0 0 C0.33 0 0.66 0 1 0 C1 4.62 1 9.24 1 14 C0.67 14 0.34 14 0 14 C0 9.38 0 4.76 0 0 Z " fill="#000000" transform="translate(170,593)"/>
<path d="M0 0 C0.33 0 0.66 0 1 0 C1 3.96 1 7.92 1 12 C0.67 12 0.34 12 0 12 C0 8.04 0 4.08 0 0 Z " fill="#000000" transform="translate(170,301)"/>
<path d="M0 0 C5.75 1.75 5.75 1.75 8 4 C4.31245243 3.50168276 2.39509338 2.89932357 0 0 Z " fill="#000000" transform="translate(255,955)"/>
<path d="M0 0 C0.33 0 0.66 0 1 0 C1 3.3 1 6.6 1 10 C0.67 10 0.34 10 0 10 C0 6.7 0 3.4 0 0 Z " fill="#000000" transform="translate(170,289)"/>
<path d="M0 0 C0.66 0.33 1.32 0.66 2 1 C-0.375 2.5625 -0.375 2.5625 -3 4 C-3.66 3.67 -4.32 3.34 -5 3 C-2.625 1.4375 -2.625 1.4375 0 0 Z " fill="#000000" transform="translate(263,108)"/>
<path d="M0 0 C2.97 0.495 2.97 0.495 6 1 C4.125 1.625 4.125 1.625 2 2 C1.34 1.34 0.68 0.68 0 0 Z " fill="#000000" transform="translate(277,965)"/>
<path d="M0 0 C0.66 0.66 1.32 1.32 2 2 C1.625 4.125 1.625 4.125 1 6 C0.67 4.02 0.34 2.04 0 0 Z " fill="#000000" transform="translate(964,141)"/>
<path d="M0 0 C0.99 0.33 1.98 0.66 3 1 C1.35 1.33 -0.3 1.66 -2 2 C-1.34 1.34 -0.68 0.68 0 0 Z " fill="#000000" transform="translate(980,962)"/>
<path d="M0 0 C0.99 0.33 1.98 0.66 3 1 C1.35 1.33 -0.3 1.66 -2 2 C-1.34 1.34 -0.68 0.68 0 0 Z " fill="#000000" transform="translate(987,959)"/>
<path d="M0 0 C0.33 0 0.66 0 1 0 C1 1.98 1 3.96 1 6 C0.67 6 0.34 6 0 6 C0 4.02 0 2.04 0 0 Z " fill="#000000" transform="translate(170,585)"/>
<path d="M0 0 C0 0.99 0 1.98 0 3 C-0.99 3.495 -0.99 3.495 -2 4 C-1.34 2.68 -0.68 1.36 0 0 Z " fill="#000000" transform="translate(1159,386)"/>
<path d="M0 0 C0.99 0.33 1.98 0.66 3 1 C1.35 1.33 -0.3 1.66 -2 2 C-1.34 1.34 -0.68 0.68 0 0 Z " fill="#000000" transform="translate(282,99)"/>
<path d="M0 0 C0.66 0.33 1.32 0.66 2 1 C0.68 1.33 -0.64 1.66 -2 2 C-1.34 1.34 -0.68 0.68 0 0 Z " fill="#000000" transform="translate(994,956)"/>
<path d="M0 0 C0.99 0.33 1.98 0.66 3 1 C1.68 1.33 0.36 1.66 -1 2 C-0.67 1.34 -0.34 0.68 0 0 Z " fill="#000000" transform="translate(266,106)"/>
<path d="M0 0 C0.66 0.33 1.32 0.66 2 1 C1.01 1 0.02 1 -1 1 C-0.67 0.67 -0.34 0.34 0 0 Z " fill="#000000" transform="translate(1003,951)"/>
<path d="M0 0 C0.99 0.33 1.98 0.66 3 1 C2.01 1 1.02 1 0 1 C0 0.67 0 0.34 0 0 Z " fill="#000000" transform="translate(248,951)"/>
<path d="M0 0 C0.66 0.33 1.32 0.66 2 1 C1.01 1 0.02 1 -1 1 C-0.67 0.67 -0.34 0.34 0 0 Z " fill="#000000" transform="translate(1007,949)"/>
<path d="M0 0 C0.99 0.33 1.98 0.66 3 1 C2.01 1 1.02 1 0 1 C0 0.67 0 0.34 0 0 Z " fill="#000000" transform="translate(233,941)"/>
<path d="M0 0 C0.99 0.495 0.99 0.495 2 1 C1.67 1.66 1.34 2.32 1 3 C0.67 2.01 0.34 1.02 0 0 Z " fill="#000000" transform="translate(593,777)"/>
<path d="M0 0 C0 3 0 3 0 3 Z " fill="#000000" transform="translate(681,765)"/>
<path d="M0 0 C0.99 0.495 0.99 0.495 2 1 C1.67 1.66 1.34 2.32 1 3 C0.67 2.01 0.34 1.02 0 0 Z " fill="#000000" transform="translate(585,764)"/>
<path d="M0 0 C0.99 0.495 0.99 0.495 2 1 C1.67 1.66 1.34 2.32 1 3 C0.67 2.01 0.34 1.02 0 0 Z " fill="#000000" transform="translate(583,761)"/>
<path d="M0 0 C0 3 0 3 0 3 Z " fill="#000000" transform="translate(688,755)"/>
<path d="M0 0 C0.99 0.495 0.99 0.495 2 1 C1.67 1.66 1.34 2.32 1 3 C0.67 2.01 0.34 1.02 0 0 Z " fill="#000000" transform="translate(578,753)"/>
<path d="M0 0 C0 3 0 3 0 3 Z " fill="#000000" transform="translate(691,751)"/>
<path d="M0 0 C0 3 0 3 0 3 Z " fill="#000000" transform="translate(696,744)"/>
<path d="M0 0 C0 3 0 3 0 3 Z " fill="#000000" transform="translate(699,740)"/>
<path d="M0 0 C1 4 1 4 1 4 Z " fill="#000000" transform="translate(170,698)"/>
<path d="M0 0 C0.99 0.495 0.99 0.495 2 1 C1.34 1.66 0.68 2.32 0 3 C0 2.01 0 1.02 0 0 Z " fill="#000000" transform="translate(739,682)"/>
<path d="M0 0 C1 4 1 4 1 4 Z " fill="#000000" transform="translate(170,634)"/>
<path d="M0 0 C0.99 0.33 1.98 0.66 3 1 C2.01 1 1.02 1 0 1 C0 0.67 0 0.34 0 0 Z " fill="#000000" transform="translate(664,591)"/>
<path d="M0 0 C0.99 0.495 0.99 0.495 2 1 C1.67 1.66 1.34 2.32 1 3 C0.67 2.01 0.34 1.02 0 0 Z " fill="#000000" transform="translate(444,540)"/>
<path d="M0 0 C0 3 0 3 0 3 Z " fill="#000000" transform="translate(844,532)"/>
<path d="M0 0 C0 3 0 3 0 3 Z " fill="#000000" transform="translate(744,487)"/>
<path d="M0 0 C0 3 0 3 0 3 Z " fill="#000000" transform="translate(754,474)"/>
<path d="M0 0 C0 3 0 3 0 3 Z " fill="#000000" transform="translate(763,462)"/>
<path d="M0 0 C0.99 0.495 0.99 0.495 2 1 C1.67 1.66 1.34 2.32 1 3 C0.67 2.01 0.34 1.02 0 0 Z " fill="#000000" transform="translate(393,458)"/>
<path d="M0 0 C0.99 0.495 0.99 0.495 2 1 C1.67 1.66 1.34 2.32 1 3 C0.67 2.01 0.34 1.02 0 0 Z " fill="#000000" transform="translate(383,442)"/>
<path d="M0 0 C0 3 0 3 0 3 Z " fill="#000000" transform="translate(962,360)"/>
<path d="M0 0 C0.99 0.495 0.99 0.495 2 1 C1.67 1.66 1.34 2.32 1 3 C0.67 2.01 0.34 1.02 0 0 Z " fill="#000000" transform="translate(510,350)"/>
<path d="M0 0 C0 3 0 3 0 3 Z " fill="#000000" transform="translate(1010,288)"/>
<path d="M0 0 C0 3 0 3 0 3 Z " fill="#000000" transform="translate(1321,157)"/>
<path d="M0 0 C0.66 0.33 1.32 0.66 2 1 C1.01 1 0.02 1 -1 1 C-0.67 0.67 -0.34 0.34 0 0 Z " fill="#000000" transform="translate(234,127)"/>
<path d="M0 0 C0.99 0.495 0.99 0.495 2 1 C1.67 1.66 1.34 2.32 1 3 C0.67 2.01 0.34 1.02 0 0 Z " fill="#000000" transform="translate(953,121)"/>
<path d="M0 0 C0.66 0.33 1.32 0.66 2 1 C1.01 1 0.02 1 -1 1 C-0.67 0.67 -0.34 0.34 0 0 Z " fill="#000000" transform="translate(248,117)"/>
<path d="M0 0 C0.66 0.33 1.32 0.66 2 1 C1.01 1 0.02 1 -1 1 C-0.67 0.67 -0.34 0.34 0 0 Z " fill="#000000" transform="translate(254,113)"/>
<path d="M0 0 C0.99 0.33 1.98 0.66 3 1 C2.01 1 1.02 1 0 1 C0 0.67 0 0.34 0 0 Z " fill="#000000" transform="translate(935,104)"/>
<path d="M0 0 C0.99 0.33 1.98 0.66 3 1 C2.01 1 1.02 1 0 1 C0 0.67 0 0.34 0 0 Z " fill="#000000" transform="translate(932,102)"/>
<path d="M0 0 C3 1 3 1 3 1 Z " fill="#000000" transform="translate(283,967)"/>
<path d="M0 0 C3 1 3 1 3 1 Z " fill="#000000" transform="translate(975,964)"/>
<path d="M0 0 C3 1 3 1 3 1 Z " fill="#000000" transform="translate(274,964)"/>
<path d="M0 0 C3 1 3 1 3 1 Z " fill="#000000" transform="translate(269,962)"/>
<path d="M0 0 C0.33 0.66 0.66 1.32 1 2 C0.34 1.67 -0.32 1.34 -1 1 C-0.67 0.67 -0.34 0.34 0 0 Z " fill="#000000" transform="translate(734,500)"/>
<path d="" fill="#000000" transform="translate(0,0)"/>
<path d="" fill="#000000" transform="translate(0,0)"/>
<path d="M0 0 C2 1 2 1 2 1 Z " fill="#000000" transform="translate(272,963)"/>
<path d="M0 0 C2 1 2 1 2 1 Z " fill="#000000" transform="translate(983,961)"/>
<path d="M0 0 C2 1 2 1 2 1 Z " fill="#000000" transform="translate(267,961)"/>
<path d="M0 0 C2 1 2 1 2 1 Z " fill="#000000" transform="translate(265,960)"/>
<path d="M0 0 C2 1 2 1 2 1 Z " fill="#000000" transform="translate(263,959)"/>
<path d="M0 0 C2 1 2 1 2 1 Z " fill="#000000" transform="translate(990,958)"/>
<path d="M0 0 C2 1 2 1 2 1 Z " fill="#000000" transform="translate(996,955)"/>
<path d="M0 0 C2 1 2 1 2 1 Z " fill="#000000" transform="translate(998,954)"/>
<path d="M0 0 C2 1 2 1 2 1 Z " fill="#000000" transform="translate(253,954)"/>
<path d="M0 0 C2 1 2 1 2 1 Z " fill="#000000" transform="translate(1000,953)"/>
<path d="M0 0 C2 1 2 1 2 1 Z " fill="#000000" transform="translate(251,953)"/>
<path d="M0 0 C2 1 2 1 2 1 Z " fill="#000000" transform="translate(246,950)"/>
<path d="M0 0 C2 1 2 1 2 1 Z " fill="#000000" transform="translate(1009,948)"/>
<path d="M0 0 C2 1 2 1 2 1 Z " fill="#000000" transform="translate(243,948)"/>
<path d="M0 0 C2 1 2 1 2 1 Z " fill="#000000" transform="translate(1012,946)"/>
<path d="M0 0 C2 1 2 1 2 1 Z " fill="#000000" transform="translate(240,946)"/>
<path d="M0 0 C2 1 2 1 2 1 Z " fill="#000000" transform="translate(1015,944)"/>
<path d="M0 0 C2 1 2 1 2 1 Z " fill="#000000" transform="translate(237,944)"/>
<path d="" fill="#000000" transform="translate(0,0)"/>
<path d="" fill="#000000" transform="translate(0,0)"/>
<path d="" fill="#000000" transform="translate(0,0)"/>
<path d="" fill="#000000" transform="translate(0,0)"/>
<path d="" fill="#000000" transform="translate(0,0)"/>
<path d="" fill="#000000" transform="translate(0,0)"/>
<path d="" fill="#000000" transform="translate(0,0)"/>
<path d="" fill="#000000" transform="translate(0,0)"/>
<path d="" fill="#000000" transform="translate(0,0)"/>
<path d="" fill="#000000" transform="translate(0,0)"/>
<path d="" fill="#000000" transform="translate(0,0)"/>
<path d="" fill="#000000" transform="translate(0,0)"/>
<path d="" fill="#000000" transform="translate(0,0)"/>
<path d="" fill="#000000" transform="translate(0,0)"/>
<path d="" fill="#000000" transform="translate(0,0)"/>
<path d="" fill="#000000" transform="translate(0,0)"/>
<path d="" fill="#000000" transform="translate(0,0)"/>
<path d="" fill="#000000" transform="translate(0,0)"/>
<path d="" fill="#000000" transform="translate(0,0)"/>
<path d="" fill="#000000" transform="translate(0,0)"/>
<path d="" fill="#000000" transform="translate(0,0)"/>
<path d="" fill="#000000" transform="translate(0,0)"/>
<path d="" fill="#000000" transform="translate(0,0)"/>
<path d="" fill="#000000" transform="translate(0,0)"/>
<path d="" fill="#000000" transform="translate(0,0)"/>
<path d="" fill="#000000" transform="translate(0,0)"/>
<path d="" fill="#000000" transform="translate(0,0)"/>
<path d="" fill="#000000" transform="translate(0,0)"/>
<path d="" fill="#000000" transform="translate(0,0)"/>
<path d="" fill="#000000" transform="translate(0,0)"/>
<path d="" fill="#000000" transform="translate(0,0)"/>
<path d="" fill="#000000" transform="translate(0,0)"/>
<path d="" fill="#000000" transform="translate(0,0)"/>
<path d="" fill="#000000" transform="translate(0,0)"/>
<path d="" fill="#000000" transform="translate(0,0)"/>
<path d="" fill="#000000" transform="translate(0,0)"/>
<path d="" fill="#000000" transform="translate(0,0)"/>
<path d="" fill="#000000" transform="translate(0,0)"/>
<path d="" fill="#000000" transform="translate(0,0)"/>
<path d="" fill="#000000" transform="translate(0,0)"/>
<path d="" fill="#000000" transform="translate(0,0)"/>
<path d="" fill="#000000" transform="translate(0,0)"/>
<path d="" fill="#000000" transform="translate(0,0)"/>
<path d="" fill="#000000" transform="translate(0,0)"/>
<path d="" fill="#000000" transform="translate(0,0)"/>
<path d="M0 0 C2 1 2 1 2 1 Z " fill="#000000" transform="translate(237,125)"/>
<path d="M0 0 C2 1 2 1 2 1 Z " fill="#000000" transform="translate(241,122)"/>
<path d="M0 0 C2 1 2 1 2 1 Z " fill="#000000" transform="translate(244,120)"/>
<path d="M0 0 C2 1 2 1 2 1 Z " fill="#000000" transform="translate(250,116)"/>
<path d="M0 0 C2 1 2 1 2 1 Z " fill="#000000" transform="translate(256,112)"/>
<path d="" fill="#000000" transform="translate(0,0)"/>
<path d="M0 0 C2 1 2 1 2 1 Z " fill="#000000" transform="translate(269,105)"/>
<path d="M0 0 C2 1 2 1 2 1 Z " fill="#000000" transform="translate(930,101)"/>
<path d="M0 0 C2 1 2 1 2 1 Z " fill="#000000" transform="translate(923,97)"/>
<path d="M0 0 C2 1 2 1 2 1 Z " fill="#000000" transform="translate(921,96)"/>
<path d="" fill="#000000" transform="translate(0,0)"/>
<path d="" fill="#000000" transform="translate(0,0)"/>
<path d="" fill="#000000" transform="translate(0,0)"/>
<path d="" fill="#000000" transform="translate(0,0)"/>
<path d="" fill="#000000" transform="translate(0,0)"/>
<path d="" fill="#000000" transform="translate(0,0)"/>
<path d="" fill="#000000" transform="translate(0,0)"/>
<path d="" fill="#000000" transform="translate(0,0)"/>
<path d="" fill="#000000" transform="translate(0,0)"/>
<path d="" fill="#000000" transform="translate(0,0)"/>
<path d="" fill="#000000" transform="translate(0,0)"/>
<path d="" fill="#000000" transform="translate(0,0)"/>
<path d="" fill="#000000" transform="translate(0,0)"/>
<path d="" fill="#000000" transform="translate(0,0)"/>
<path d="" fill="#000000" transform="translate(0,0)"/>
<path d="" fill="#000000" transform="translate(0,0)"/>
<path d="" fill="#000000" transform="translate(0,0)"/>
<path d="" fill="#000000" transform="translate(0,0)"/>
<path d="" fill="#000000" transform="translate(0,0)"/>
<path d="" fill="#000000" transform="translate(0,0)"/>
<path d="" fill="#000000" transform="translate(0,0)"/>
<path d="" fill="#000000" transform="translate(0,0)"/>
<path d="" fill="#000000" transform="translate(0,0)"/>
<path d="" fill="#000000" transform="translate(0,0)"/>
<path d="" fill="#000000" transform="translate(0,0)"/>
<path d="" fill="#000000" transform="translate(0,0)"/>
<path d="" fill="#000000" transform="translate(0,0)"/>
<path d="" fill="#000000" transform="translate(0,0)"/>
<path d="" fill="#000000" transform="translate(0,0)"/>
<path d="" fill="#000000" transform="translate(0,0)"/>
<path d="" fill="#000000" transform="translate(0,0)"/>
<path d="" fill="#000000" transform="translate(0,0)"/>
<path d="" fill="#000000" transform="translate(0,0)"/>
<path d="" fill="#000000" transform="translate(0,0)"/>
<path d="" fill="#000000" transform="translate(0,0)"/>
<path d="" fill="#000000" transform="translate(0,0)"/>
<path d="" fill="#000000" transform="translate(0,0)"/>
<path d="" fill="#000000" transform="translate(0,0)"/>
<path d="" fill="#000000" transform="translate(0,0)"/>
<path d="" fill="#000000" transform="translate(0,0)"/>
<path d="" fill="#000000" transform="translate(0,0)"/>
<path d="" fill="#000000" transform="translate(0,0)"/>
<path d="" fill="#000000" transform="translate(0,0)"/>
<path d="" fill="#000000" transform="translate(0,0)"/>
<path d="" fill="#000000" transform="translate(0,0)"/>
<path d="" fill="#000000" transform="translate(0,0)"/>
<path d="" fill="#000000" transform="translate(0,0)"/>
<path d="" fill="#000000" transform="translate(0,0)"/>
<path d="" fill="#000000" transform="translate(0,0)"/>
<path d="" fill="#000000" transform="translate(0,0)"/>
<path d="" fill="#000000" transform="translate(0,0)"/>
<path d="" fill="#000000" transform="translate(0,0)"/>
<path d="" fill="#000000" transform="translate(0,0)"/>
<path d="" fill="#000000" transform="translate(0,0)"/>
<path d="" fill="#000000" transform="translate(0,0)"/>
<path d="" fill="#000000" transform="translate(0,0)"/>
<path d="" fill="#000000" transform="translate(0,0)"/>
<path d="" fill="#000000" transform="translate(0,0)"/>
<path d="" fill="#000000" transform="translate(0,0)"/>
<path d="" fill="#000000" transform="translate(0,0)"/>
<path d="" fill="#000000" transform="translate(0,0)"/>
<path d="" fill="#000000" transform="translate(0,0)"/>
<path d="" fill="#000000" transform="translate(0,0)"/>
<path d="" fill="#000000" transform="translate(0,0)"/>
<path d="" fill="#000000" transform="translate(0,0)"/>
<path d="" fill="#000000" transform="translate(0,0)"/>
<path d="" fill="#000000" transform="translate(0,0)"/>
<path d="" fill="#000000" transform="translate(0,0)"/>
<path d="" fill="#000000" transform="translate(0,0)"/>
<path d="" fill="#000000" transform="translate(0,0)"/>
<path d="" fill="#000000" transform="translate(0,0)"/>
<path d="" fill="#000000" transform="translate(0,0)"/>
<path d="" fill="#000000" transform="translate(0,0)"/>
<path d="" fill="#000000" transform="translate(0,0)"/>
<path d="" fill="#000000" transform="translate(0,0)"/>
<path d="" fill="#000000" transform="translate(0,0)"/>
<path d="" fill="#000000" transform="translate(0,0)"/>
<path d="" fill="#000000" transform="translate(0,0)"/>
<path d="" fill="#000000" transform="translate(0,0)"/>
<path d="" fill="#000000" transform="translate(0,0)"/>
<path d="" fill="#000000" transform="translate(0,0)"/>
<path d="" fill="#000000" transform="translate(0,0)"/>
<path d="" fill="#000000" transform="translate(0,0)"/>
<path d="" fill="#000000" transform="translate(0,0)"/>
<path d="" fill="#000000" transform="translate(0,0)"/>
<path d="" fill="#000000" transform="translate(0,0)"/>
<path d="" fill="#000000" transform="translate(0,0)"/>
<path d="" fill="#000000" transform="translate(0,0)"/>
<path d="" fill="#000000" transform="translate(0,0)"/>
<path d="" fill="#000000" transform="translate(0,0)"/>
<path d="" fill="#000000" transform="translate(0,0)"/>
<path d="" fill="#000000" transform="translate(0,0)"/>
<path d="" fill="#000000" transform="translate(0,0)"/>
<path d="" fill="#000000" transform="translate(0,0)"/>
<path d="" fill="#000000" transform="translate(0,0)"/>
<path d="" fill="#000000" transform="translate(0,0)"/>
<path d="" fill="#000000" transform="translate(0,0)"/>
<path d="" fill="#000000" transform="translate(0,0)"/>
<path d="" fill="#000000" transform="translate(0,0)"/>
<path d="" fill="#000000" transform="translate(0,0)"/>
<path d="" fill="#000000" transform="translate(0,0)"/>
<path d="" fill="#000000" transform="translate(0,0)"/>
<path d="" fill="#000000" transform="translate(0,0)"/>
<path d="" fill="#000000" transform="translate(0,0)"/>
<path d="" fill="#000000" transform="translate(0,0)"/>
<path d="" fill="#000000" transform="translate(0,0)"/>
<path d="" fill="#000000" transform="translate(0,0)"/>
<path d="" fill="#000000" transform="translate(0,0)"/>
<path d="" fill="#000000" transform="translate(0,0)"/>
<path d="" fill="#000000" transform="translate(0,0)"/>
<path d="" fill="#000000" transform="translate(0,0)"/>
<path d="" fill="#000000" transform="translate(0,0)"/>
<path d="" fill="#000000" transform="translate(0,0)"/>
<path d="" fill="#000000" transform="translate(0,0)"/>
<path d="" fill="#000000" transform="translate(0,0)"/>
<path d="" fill="#000000" transform="translate(0,0)"/>
<path d="" fill="#000000" transform="translate(0,0)"/>
<path d="" fill="#000000" transform="translate(0,0)"/>
<path d="" fill="#000000" transform="translate(0,0)"/>
<path d="" fill="#000000" transform="translate(0,0)"/>
<path d="" fill="#000000" transform="translate(0,0)"/>
<path d="" fill="#000000" transform="translate(0,0)"/>
<path d="" fill="#000000" transform="translate(0,0)"/>
<path d="" fill="#000000" transform="translate(0,0)"/>
<path d="" fill="#000000" transform="translate(0,0)"/>
<path d="" fill="#000000" transform="translate(0,0)"/>
<path d="" fill="#000000" transform="translate(0,0)"/>
<path d="" fill="#000000" transform="translate(0,0)"/>
<path d="" fill="#000000" transform="translate(0,0)"/>
<path d="" fill="#000000" transform="translate(0,0)"/>
<path d="" fill="#000000" transform="translate(0,0)"/>
<path d="" fill="#000000" transform="translate(0,0)"/>
<path d="" fill="#000000" transform="translate(0,0)"/>
<path d="" fill="#000000" transform="translate(0,0)"/>
<path d="" fill="#000000" transform="translate(0,0)"/>
<path d="" fill="#000000" transform="translate(0,0)"/>
<path d="" fill="#000000" transform="translate(0,0)"/>
<path d="" fill="#000000" transform="translate(0,0)"/>
<path d="" fill="#000000" transform="translate(0,0)"/>
<path d="" fill="#000000" transform="translate(0,0)"/>
</svg>
